<svg xmlns="http://www.w3.org/2000/svg" width="279.964" height="304.391" viewBox="0 0 279.964 304.391"><g id="Group_2" data-name="Group 2" transform="translate(-104.693 -1.311)"><rect id="Rectangle_76" width="4.104" height="33.821" fill="#3f3d56" data-name="Rectangle 76" rx=".751" transform="matrix(0.788, -0.616, 0.616, 0.788, 250.1, 52.551)"/><rect id="Rectangle_80" width="137.287" height="279.016" fill="#3f3d56" data-name="Rectangle 80" rx="12.78" transform="matrix(0.788, -0.616, 0.616, 0.788, 104.693, 85.834)"/><path id="Path_176" fill="#eff2fc" d="M109.443,0H93.695V1.894a8.976,8.976,0,0,1-8.981,8.976H34.63a8.976,8.976,0,0,1-8.981-8.976V0H10.9A10.9,10.9,0,0,0,0,10.9V253.6a10.9,10.9,0,0,0,10.9,10.9h98.54a10.9,10.9,0,0,0,10.9-10.9V10.922A10.9,10.9,0,0,0,109.443,0Z" data-name="Path 176" transform="matrix(0.788, -0.616, 0.616, 0.788, 116.052, 86.183)"/><rect id="Rectangle_81" width="19.171" height="3.891" fill="#e6e8ec" data-name="Rectangle 81" rx="1.269" transform="matrix(0.788, -0.616, 0.616, 0.788, 153.48, 58.292)"/><circle id="Ellipse_5" cx="2.209" cy="2.209" r="2.209" fill="#e6e8ec" data-name="Ellipse 5" transform="matrix(0.788, -0.616, 0.616, 0.788, 170.71, 44.496)"/><ellipse id="Ellipse_11" cx="25.971" cy="25.971" fill="#fff" data-name="Ellipse 11" rx="25.971" ry="25.971" transform="matrix(0.788, -0.616, 0.616, 0.788, 210.99, 151.214)"/><path id="Path_222" fill="#b5c2ea" d="M69.422,34.712A34.711,34.711,0,1,1,34.711,0,34.711,34.711,0,0,1,69.422,34.712ZM30.7,53.085,56.448,27.337a2.237,2.237,0,0,0,0-3.168L53.28,21.024a2.233,2.233,0,0,0-3.164,0l-21,21L19.31,32.2a2.246,2.246,0,0,0-3.168,0l-3.168,3.187a2.247,2.247,0,0,0,0,3.168L27.532,53.1a2.237,2.237,0,0,0,3.168,0Z" data-name="Path 222" transform="matrix(0.788, -0.616, 0.616, 0.788, 196.054, 147.189)"/></g></svg>